<?xml version="1.0" encoding="UTF-8"?>
<svg xmlns="http://www.w3.org/2000/svg" xmlns:xlink="http://www.w3.org/1999/xlink" width="346pt" height="539pt" viewBox="0 0 346 539" version="1.1">
<g id="surface1">
<path style=" stroke:none;fill-rule:nonzero;fill:rgb(25.898743%,66.299438%,50.19989%);fill-opacity:1;" d="M 58.253906 1.511719 L 1.558594 1.511719 L 1.558594 276.472656 C 1.558594 370.40625 77.703125 446.550781 171.636719 446.550781 C 265.570313 446.550781 341.746094 370.40625 341.746094 276.472656 L 341.746094 1.511719 L 285.023438 1.511719 L 285.039063 276.472656 C 285.039063 339.09375 234.261719 389.859375 171.636719 389.859375 C 109.015625 389.859375 58.253906 339.09375 58.253906 276.472656 L 58.253906 1.511719 "/>
<path style="fill:none;stroke-width:10;stroke-linecap:butt;stroke-linejoin:miter;stroke:rgb(25.898743%,66.299438%,50.19989%);stroke-opacity:1;stroke-miterlimit:3.86371;" d="M 582.539063 5374.882813 L 15.585938 5374.882813 L 15.585938 2625.273438 C 15.585938 1685.9375 777.03125 924.492188 1716.367188 924.492188 C 2655.703125 924.492188 3417.460938 1685.9375 3417.460938 2625.273438 L 3417.460938 5374.882813 L 2850.234375 5374.882813 L 2850.390625 2625.273438 C 2850.390625 1999.0625 2342.617188 1491.40625 1716.367188 1491.40625 C 1090.15625 1491.40625 582.539063 1999.0625 582.539063 2625.273438 Z M 582.539063 5374.882813 " transform="matrix(0.1,0,0,-0.1,0,539)"/>
<path style=" stroke:none;fill-rule:nonzero;fill:rgb(25.898743%,66.299438%,50.19989%);fill-opacity:1;" d="M 88.015625 297.730469 L 255.261719 297.730469 L 255.261719 314.738281 L 88.015625 314.738281 L 88.015625 297.730469 "/>
<path style="fill:none;stroke-width:10;stroke-linecap:butt;stroke-linejoin:miter;stroke:rgb(25.898743%,66.299438%,50.19989%);stroke-opacity:1;stroke-miterlimit:3.86371;" d="M 880.15625 2412.695313 L 2552.617188 2412.695313 L 2552.617188 2242.617188 L 880.15625 2242.617188 Z M 880.15625 2412.695313 " transform="matrix(0.1,0,0,-0.1,0,539)"/>
<path style=" stroke:none;fill-rule:nonzero;fill:rgb(25.898743%,66.299438%,50.19989%);fill-opacity:1;" d="M 88.015625 275.828125 L 255.261719 275.828125 L 255.261719 292.835938 L 88.015625 292.835938 L 88.015625 275.828125 "/>
<path style="fill:none;stroke-width:10;stroke-linecap:butt;stroke-linejoin:miter;stroke:rgb(25.898743%,66.299438%,50.19989%);stroke-opacity:1;stroke-miterlimit:3.86371;" d="M 880.15625 2631.71875 L 2552.617188 2631.71875 L 2552.617188 2461.640625 L 880.15625 2461.640625 Z M 880.15625 2631.71875 " transform="matrix(0.1,0,0,-0.1,0,539)"/>
<path style=" stroke:none;fill-rule:nonzero;fill:rgb(25.898743%,66.299438%,50.19989%);fill-opacity:1;" d="M 88.015625 253.925781 L 255.261719 253.925781 L 255.261719 270.933594 L 88.015625 270.933594 L 88.015625 253.925781 "/>
<path style="fill:none;stroke-width:10;stroke-linecap:butt;stroke-linejoin:miter;stroke:rgb(25.898743%,66.299438%,50.19989%);stroke-opacity:1;stroke-miterlimit:3.86371;" d="M 880.15625 2850.742188 L 2552.617188 2850.742188 L 2552.617188 2680.664063 L 880.15625 2680.664063 Z M 880.15625 2850.742188 " transform="matrix(0.1,0,0,-0.1,0,539)"/>
<path style=" stroke:none;fill-rule:nonzero;fill:rgb(25.898743%,66.299438%,50.19989%);fill-opacity:1;" d="M 88.015625 232.019531 L 255.261719 232.019531 L 255.261719 249.027344 L 88.015625 249.027344 L 88.015625 232.019531 "/>
<path style="fill:none;stroke-width:10;stroke-linecap:butt;stroke-linejoin:miter;stroke:rgb(25.898743%,66.299438%,50.19989%);stroke-opacity:1;stroke-miterlimit:3.86371;" d="M 880.15625 3069.804688 L 2552.617188 3069.804688 L 2552.617188 2899.726563 L 880.15625 2899.726563 Z M 880.15625 3069.804688 " transform="matrix(0.1,0,0,-0.1,0,539)"/>
<path style=" stroke:none;fill-rule:nonzero;fill:rgb(25.898743%,66.299438%,50.19989%);fill-opacity:1;" d="M 88.015625 210.117188 L 255.261719 210.117188 L 255.261719 227.125 L 88.015625 227.125 L 88.015625 210.117188 "/>
<path style="fill:none;stroke-width:10;stroke-linecap:butt;stroke-linejoin:miter;stroke:rgb(25.898743%,66.299438%,50.19989%);stroke-opacity:1;stroke-miterlimit:3.86371;" d="M 880.15625 3288.828125 L 2552.617188 3288.828125 L 2552.617188 3118.75 L 880.15625 3118.75 Z M 880.15625 3288.828125 " transform="matrix(0.1,0,0,-0.1,0,539)"/>
<path style=" stroke:none;fill-rule:nonzero;fill:rgb(25.898743%,66.299438%,50.19989%);fill-opacity:1;" d="M 88.015625 188.210938 L 255.261719 188.210938 L 255.261719 205.21875 L 88.015625 205.21875 L 88.015625 188.210938 "/>
<path style="fill:none;stroke-width:10;stroke-linecap:butt;stroke-linejoin:miter;stroke:rgb(25.898743%,66.299438%,50.19989%);stroke-opacity:1;stroke-miterlimit:3.86371;" d="M 880.15625 3507.890625 L 2552.617188 3507.890625 L 2552.617188 3337.8125 L 880.15625 3337.8125 Z M 880.15625 3507.890625 " transform="matrix(0.1,0,0,-0.1,0,539)"/>
<path style=" stroke:none;fill-rule:nonzero;fill:rgb(25.898743%,66.299438%,50.19989%);fill-opacity:1;" d="M 88.015625 166.308594 L 255.261719 166.308594 L 255.261719 183.316406 L 88.015625 183.316406 L 88.015625 166.308594 "/>
<path style="fill:none;stroke-width:10;stroke-linecap:butt;stroke-linejoin:miter;stroke:rgb(25.898743%,66.299438%,50.19989%);stroke-opacity:1;stroke-miterlimit:3.86371;" d="M 880.15625 3726.914063 L 2552.617188 3726.914063 L 2552.617188 3556.835938 L 880.15625 3556.835938 Z M 880.15625 3726.914063 " transform="matrix(0.1,0,0,-0.1,0,539)"/>
<path style=" stroke:none;fill-rule:nonzero;fill:rgb(25.898743%,66.299438%,50.19989%);fill-opacity:1;" d="M 88.015625 144.402344 L 255.261719 144.402344 L 255.261719 161.410156 L 88.015625 161.410156 L 88.015625 144.402344 "/>
<path style="fill:none;stroke-width:10;stroke-linecap:butt;stroke-linejoin:miter;stroke:rgb(25.898743%,66.299438%,50.19989%);stroke-opacity:1;stroke-miterlimit:3.86371;" d="M 880.15625 3945.976563 L 2552.617188 3945.976563 L 2552.617188 3775.898438 L 880.15625 3775.898438 Z M 880.15625 3945.976563 " transform="matrix(0.1,0,0,-0.1,0,539)"/>
<path style=" stroke:none;fill-rule:nonzero;fill:rgb(25.898743%,66.299438%,50.19989%);fill-opacity:1;" d="M 88.015625 122.5 L 255.261719 122.5 L 255.261719 139.507813 L 88.015625 139.507813 L 88.015625 122.5 "/>
<path style="fill:none;stroke-width:10;stroke-linecap:butt;stroke-linejoin:miter;stroke:rgb(25.898743%,66.299438%,50.19989%);stroke-opacity:1;stroke-miterlimit:3.86371;" d="M 880.15625 4165 L 2552.617188 4165 L 2552.617188 3994.921875 L 880.15625 3994.921875 Z M 880.15625 4165 " transform="matrix(0.1,0,0,-0.1,0,539)"/>
<path style=" stroke:none;fill-rule:nonzero;fill:rgb(25.898743%,66.299438%,50.19989%);fill-opacity:1;" d="M 88.015625 100.597656 L 255.261719 100.597656 L 255.261719 117.605469 L 88.015625 117.605469 L 88.015625 100.597656 "/>
<path style="fill:none;stroke-width:10;stroke-linecap:butt;stroke-linejoin:miter;stroke:rgb(25.898743%,66.299438%,50.19989%);stroke-opacity:1;stroke-miterlimit:3.86371;" d="M 880.15625 4384.023438 L 2552.617188 4384.023438 L 2552.617188 4213.945313 L 880.15625 4213.945313 Z M 880.15625 4384.023438 " transform="matrix(0.1,0,0,-0.1,0,539)"/>
<path style=" stroke:none;fill-rule:nonzero;fill:rgb(25.898743%,66.299438%,50.19989%);fill-opacity:1;" d="M 88.015625 78.691406 L 255.261719 78.691406 L 255.261719 95.699219 L 88.015625 95.699219 L 88.015625 78.691406 "/>
<path style="fill:none;stroke-width:10;stroke-linecap:butt;stroke-linejoin:miter;stroke:rgb(25.898743%,66.299438%,50.19989%);stroke-opacity:1;stroke-miterlimit:3.86371;" d="M 880.15625 4603.085938 L 2552.617188 4603.085938 L 2552.617188 4433.007813 L 880.15625 4433.007813 Z M 880.15625 4603.085938 " transform="matrix(0.1,0,0,-0.1,0,539)"/>
<path style=" stroke:none;fill-rule:nonzero;fill:rgb(25.898743%,66.299438%,50.19989%);fill-opacity:1;" d="M 88.015625 56.785156 L 255.261719 56.785156 L 255.261719 73.796875 L 88.015625 73.796875 L 88.015625 56.785156 "/>
<path style="fill:none;stroke-width:10;stroke-linecap:butt;stroke-linejoin:miter;stroke:rgb(25.898743%,66.299438%,50.19989%);stroke-opacity:1;stroke-miterlimit:3.86371;" d="M 880.15625 4822.148438 L 2552.617188 4822.148438 L 2552.617188 4652.03125 L 880.15625 4652.03125 Z M 880.15625 4822.148438 " transform="matrix(0.1,0,0,-0.1,0,539)"/>
<path style=" stroke:none;fill-rule:nonzero;fill:rgb(25.898743%,66.299438%,50.19989%);fill-opacity:1;" d="M 88.015625 32.691406 L 255.261719 32.691406 L 255.261719 52.535156 L 88.015625 52.535156 L 88.015625 32.691406 "/>
<path style="fill:none;stroke-width:10;stroke-linecap:butt;stroke-linejoin:miter;stroke:rgb(25.898743%,66.299438%,50.19989%);stroke-opacity:1;stroke-miterlimit:3.86371;" d="M 880.15625 5063.085938 L 2552.617188 5063.085938 L 2552.617188 4864.648438 L 880.15625 4864.648438 Z M 880.15625 5063.085938 " transform="matrix(0.1,0,0,-0.1,0,539)"/>
<path style=" stroke:none;fill-rule:nonzero;fill:rgb(25.898743%,66.299438%,50.19989%);fill-opacity:1;" d="M 88.015625 5.765625 L 105.023438 5.765625 L 105.023438 34.109375 L 88.015625 34.109375 L 88.015625 5.765625 "/>
<path style="fill:none;stroke-width:10;stroke-linecap:butt;stroke-linejoin:miter;stroke:rgb(25.898743%,66.299438%,50.19989%);stroke-opacity:1;stroke-miterlimit:3.86371;" d="M 880.15625 5332.34375 L 1050.234375 5332.34375 L 1050.234375 5048.90625 L 880.15625 5048.90625 Z M 880.15625 5332.34375 " transform="matrix(0.1,0,0,-0.1,0,539)"/>
<path style=" stroke:none;fill-rule:nonzero;fill:rgb(25.898743%,66.299438%,50.19989%);fill-opacity:1;" d="M 125.574219 5.765625 L 142.582031 5.765625 L 142.582031 34.109375 L 125.574219 34.109375 L 125.574219 5.765625 "/>
<path style="fill:none;stroke-width:10;stroke-linecap:butt;stroke-linejoin:miter;stroke:rgb(25.898743%,66.299438%,50.19989%);stroke-opacity:1;stroke-miterlimit:3.86371;" d="M 1255.742188 5332.34375 L 1425.820313 5332.34375 L 1425.820313 5048.90625 L 1255.742188 5048.90625 Z M 1255.742188 5332.34375 " transform="matrix(0.1,0,0,-0.1,0,539)"/>
<path style=" stroke:none;fill-rule:nonzero;fill:rgb(25.898743%,66.299438%,50.19989%);fill-opacity:1;" d="M 163.132813 5.765625 L 180.140625 5.765625 L 180.140625 34.109375 L 163.132813 34.109375 L 163.132813 5.765625 "/>
<path style="fill:none;stroke-width:10;stroke-linecap:butt;stroke-linejoin:miter;stroke:rgb(25.898743%,66.299438%,50.19989%);stroke-opacity:1;stroke-miterlimit:3.86371;" d="M 1631.328125 5332.34375 L 1801.40625 5332.34375 L 1801.40625 5048.90625 L 1631.328125 5048.90625 Z M 1631.328125 5332.34375 " transform="matrix(0.1,0,0,-0.1,0,539)"/>
<path style=" stroke:none;fill-rule:nonzero;fill:rgb(25.898743%,66.299438%,50.19989%);fill-opacity:1;" d="M 200.691406 5.765625 L 217.699219 5.765625 L 217.699219 34.109375 L 200.691406 34.109375 L 200.691406 5.765625 "/>
<path style="fill:none;stroke-width:10;stroke-linecap:butt;stroke-linejoin:miter;stroke:rgb(25.898743%,66.299438%,50.19989%);stroke-opacity:1;stroke-miterlimit:3.86371;" d="M 2006.914063 5332.34375 L 2176.992188 5332.34375 L 2176.992188 5048.90625 L 2006.914063 5048.90625 Z M 2006.914063 5332.34375 " transform="matrix(0.1,0,0,-0.1,0,539)"/>
<path style=" stroke:none;fill-rule:nonzero;fill:rgb(25.898743%,66.299438%,50.19989%);fill-opacity:1;" d="M 238.253906 5.765625 L 255.261719 5.765625 L 255.261719 34.109375 L 238.253906 34.109375 L 238.253906 5.765625 "/>
<path style="fill:none;stroke-width:10;stroke-linecap:butt;stroke-linejoin:miter;stroke:rgb(25.898743%,66.299438%,50.19989%);stroke-opacity:1;stroke-miterlimit:3.86371;" d="M 2382.539063 5332.34375 L 2552.617188 5332.34375 L 2552.617188 5048.90625 L 2382.539063 5048.90625 Z M 2382.539063 5332.34375 " transform="matrix(0.1,0,0,-0.1,0,539)"/>
</g>
</svg>
